<?xml version="1.0" standalone="no"?>
<!DOCTYPE svg PUBLIC "-//W3C//DTD SVG 20010904//EN"
 "http://www.w3.org/TR/2001/REC-SVG-20010904/DTD/svg10.dtd">
<svg version="1.0" xmlns="http://www.w3.org/2000/svg"
 width="705.000000pt" height="705.000000pt" viewBox="0 0 705.000000 705.000000"
 preserveAspectRatio="xMidYMid meet">
<metadata>
Created by potrace 1.11, written by Peter Selinger 2001-2013
</metadata>
<g transform="translate(0.000000,705.000000) scale(0.100000,-0.100000)"
fill="#000000" stroke="none">
<path d="M1820 7039 c-132 -14 -315 -66 -422 -120 -431 -216 -707 -616 -748
-1083 -14 -158 -13 -3406 1 -3555 50 -532 414 -986 921 -1146 175 -55 199 -57
820 -62 l577 -5 308 -534 c284 -493 308 -532 320 -511 7 12 144 252 306 532
l294 510 519 6 c575 6 610 9 811 80 278 98 514 289 685 555 98 152 168 361
188 563 8 73 10 654 8 1866 -4 1744 -4 1761 -25 1850 -111 479 -436 845 -882
994 -206 69 -78 65 -1926 67 -921 1 -1708 -2 -1755 -7z m1280 -440 c346 -43
647 -296 748 -630 27 -87 45 -247 37 -323 -11 -105 -44 -225 -84 -312 -47 -99
-84 -154 -157 -234 l-56 -60 44 6 c68 10 147 -17 201 -68 47 -44 904 -1212
941 -1283 33 -62 29 -164 -8 -232 -45 -81 -130 -133 -220 -133 -76 0 -138 25
-185 73 -52 55 -913 1234 -936 1284 -27 56 -26 156 3 210 l22 42 -73 -34
c-209 -97 -456 -112 -665 -41 -245 84 -423 244 -532 480 -52 113 -71 192 -77
326 -21 469 306 860 775 929 82 12 127 12 222 0z m-1275 -2966 c26 -247 92
-439 213 -623 433 -652 1375 -931 2209 -655 142 47 365 158 483 242 52 37 145
117 206 178 171 171 280 341 348 545 31 94 66 275 66 344 l0 26 299 0 c165 0
302 -3 304 -7 9 -14 -13 -214 -33 -309 -53 -256 -170 -504 -348 -739 -67 -87
-274 -291 -371 -364 -173 -131 -390 -255 -578 -330 -633 -252 -1346 -264
-1981 -35 -500 181 -914 503 -1164 907 -148 238 -241 519 -255 775 l-6 102
301 0 301 0 6 -57z"/>
<path d="M2825 6354 c-81 -20 -188 -74 -254 -128 -158 -130 -241 -304 -241
-508 0 -128 13 -184 67 -297 36 -75 59 -108 121 -171 135 -135 277 -195 467
-195 189 0 326 56 461 190 138 137 199 278 198 465 -1 126 -19 203 -77 315
-73 142 -222 266 -377 317 -86 27 -278 34 -365 12z"/>
</g>
</svg>
